# xmcd
#
# Track frame offsets: 
#        183
#        11220
#        21565
#        33263
#        48583
#        62385
#        72808
#        97853
#        111145
#        123618
#        129648
#        138663
#        151075
#        161483
#        171758
#        183308
#        207665
#
# Disc length: 2915 seconds
#
# Revision: 8
# Processed by: cddbd v1.5.2PL0 Copyright (c) Steve Scherf et al.
# Submitted via: ExactAudioCopy v1.3
#
DISCID=ed0b6111
DTITLE=Eric Clapton - The World Of Eric Clapton - 17 Great Songs
DYEAR=1991
DGENRE=Blues
TTITLE0=Snake Drive
TTITLE1=West Coast Idea
TTITLE2=Got To Hurry
TTITLE3=Train Kept A Rolling
TTITLE4=Draggin' My Tail
TTITLE5=A Certain Girl
TTITLE6=Smokestack Lightning
TTITLE7=Too Much Monkey Business
TTITLE8=Good Morning Little Schoolgirl
TTITLE9=Choker
TTITLE10=I Ain't Got You
TTITLE11=Freight Loader
TTITLE12=I Wish You Would
TTITLE13=Putty In Your Hands
TTITLE14=Got Love If You Want It
TTITLE15=She's So Respectable
TTITLE16=For Your Love
EXTD=17 Great Songs \n\nYear: 1991 YEAR: 1991
EXTT0=
EXTT1=
EXTT2=
EXTT3=
EXTT4=
EXTT5=
EXTT6=
EXTT7=
EXTT8=
EXTT9=
EXTT10=
EXTT11=
EXTT12=
EXTT13=
EXTT14=
EXTT15=
EXTT16=
PLAYORDER=
